<svg id="visual" viewBox="0 0 900 300" width="900" height="300" xmlns="http://www.w3.org/2000/svg" xmlns:xlink="http://www.w3.org/1999/xlink" version="1.1"><rect x="0" y="0" width="900" height="300" fill="#242424"></rect><path d="M0 145L129 145L129 182L257 182L257 133L386 133L386 145L514 145L514 166L643 166L643 183L771 183L771 148L900 148L900 158L900 301L900 301L771 301L771 301L643 301L643 301L514 301L514 301L386 301L386 301L257 301L257 301L129 301L129 301L0 301Z" fill="#9900ff"></path><path d="M0 173L129 173L129 225L257 225L257 206L386 206L386 214L514 214L514 213L643 213L643 224L771 224L771 192L900 192L900 181L900 301L900 301L771 301L771 301L643 301L643 301L514 301L514 301L386 301L386 301L257 301L257 301L129 301L129 301L0 301Z" fill="#7700c6"></path><path d="M0 224L129 224L129 240L257 240L257 264L386 264L386 229L514 229L514 271L643 271L643 272L771 272L771 266L900 266L900 223L900 301L900 301L771 301L771 301L643 301L643 301L514 301L514 301L386 301L386 301L257 301L257 301L129 301L129 301L0 301Z" fill="#560090"></path></svg>