<svg id="visual" viewBox="0 0 900 150" width="900" height="150" xmlns="http://www.w3.org/2000/svg" xmlns:xlink="http://www.w3.org/1999/xlink" version="1.1"><rect x="0" y="0" width="900" height="150" fill="#560090"></rect><path d="M0 70L11.5 69.3C23 68.7 46 67.3 69 71.2C92 75 115 84 138.2 84.2C161.3 84.3 184.7 75.7 207.8 71.7C231 67.7 254 68.3 277 70.5C300 72.7 323 76.3 346 78C369 79.7 392 79.3 415.2 80C438.3 80.7 461.7 82.3 484.8 81C508 79.7 531 75.3 554 73.3C577 71.3 600 71.7 623 72.3C646 73 669 74 692.2 77.7C715.3 81.3 738.7 87.7 761.8 88.3C785 89 808 84 831 80.2C854 76.3 877 73.7 888.5 72.3L900 71L900 151L888.5 151C877 151 854 151 831 151C808 151 785 151 761.8 151C738.7 151 715.3 151 692.2 151C669 151 646 151 623 151C600 151 577 151 554 151C531 151 508 151 484.8 151C461.7 151 438.3 151 415.2 151C392 151 369 151 346 151C323 151 300 151 277 151C254 151 231 151 207.8 151C184.7 151 161.3 151 138.2 151C115 151 92 151 69 151C46 151 23 151 11.5 151L0 151Z" fill="#ffffff"></path><path d="M0 90L11.5 91.5C23 93 46 96 69 95.8C92 95.7 115 92.3 138.2 91.8C161.3 91.3 184.7 93.7 207.8 92.3C231 91 254 86 277 83.7C300 81.3 323 81.7 346 84.8C369 88 392 94 415.2 96.3C438.3 98.7 461.7 97.3 484.8 98C508 98.7 531 101.3 554 98.8C577 96.3 600 88.7 623 89C646 89.3 669 97.7 692.2 98C715.3 98.3 738.7 90.7 761.8 89.8C785 89 808 95 831 96.2C854 97.3 877 93.7 888.5 91.8L900 90L900 151L888.5 151C877 151 854 151 831 151C808 151 785 151 761.8 151C738.7 151 715.3 151 692.2 151C669 151 646 151 623 151C600 151 577 151 554 151C531 151 508 151 484.8 151C461.7 151 438.3 151 415.2 151C392 151 369 151 346 151C323 151 300 151 277 151C254 151 231 151 207.8 151C184.7 151 161.3 151 138.2 151C115 151 92 151 69 151C46 151 23 151 11.5 151L0 151Z" fill="#ffffff"></path><path d="M0 100L11.5 100.7C23 101.3 46 102.7 69 101.8C92 101 115 98 138.2 99.7C161.3 101.3 184.7 107.7 207.8 108.3C231 109 254 104 277 103.7C300 103.3 323 107.7 346 107.8C369 108 392 104 415.2 104.3C438.3 104.7 461.7 109.3 484.8 110.2C508 111 531 108 554 106.5C577 105 600 105 623 105.3C646 105.7 669 106.3 692.2 107.2C715.3 108 738.7 109 761.8 107.7C785 106.3 808 102.7 831 100.2C854 97.7 877 96.3 888.5 95.7L900 95L900 151L888.5 151C877 151 854 151 831 151C808 151 785 151 761.8 151C738.7 151 715.3 151 692.2 151C669 151 646 151 623 151C600 151 577 151 554 151C531 151 508 151 484.8 151C461.7 151 438.3 151 415.2 151C392 151 369 151 346 151C323 151 300 151 277 151C254 151 231 151 207.8 151C184.7 151 161.3 151 138.2 151C115 151 92 151 69 151C46 151 23 151 11.5 151L0 151Z" fill="#ffffff"></path><path d="M0 113L11.5 115C23 117 46 121 69 121.7C92 122.3 115 119.7 138.2 118.8C161.3 118 184.7 119 207.8 119.3C231 119.7 254 119.3 277 118.2C300 117 323 115 346 115.2C369 115.3 392 117.7 415.2 118.7C438.3 119.7 461.7 119.3 484.8 120.2C508 121 531 123 554 121.3C577 119.7 600 114.3 623 113.7C646 113 669 117 692.2 118C715.3 119 738.7 117 761.8 117C785 117 808 119 831 120.3C854 121.7 877 122.3 888.5 122.7L900 123L900 151L888.5 151C877 151 854 151 831 151C808 151 785 151 761.8 151C738.7 151 715.3 151 692.2 151C669 151 646 151 623 151C600 151 577 151 554 151C531 151 508 151 484.8 151C461.7 151 438.3 151 415.2 151C392 151 369 151 346 151C323 151 300 151 277 151C254 151 231 151 207.8 151C184.7 151 161.3 151 138.2 151C115 151 92 151 69 151C46 151 23 151 11.5 151L0 151Z" fill="#ffffff"></path><path d="M0 132L11.5 132.3C23 132.7 46 133.3 69 132.3C92 131.3 115 128.7 138.2 127.7C161.3 126.7 184.7 127.3 207.8 128C231 128.7 254 129.3 277 129.2C300 129 323 128 346 127.5C369 127 392 127 415.2 128C438.3 129 461.7 131 484.8 130.7C508 130.3 531 127.7 554 127.5C577 127.3 600 129.7 623 130.5C646 131.3 669 130.7 692.2 130C715.3 129.3 738.7 128.7 761.8 128.5C785 128.3 808 128.7 831 129.2C854 129.7 877 130.3 888.5 130.7L900 131L900 151L888.5 151C877 151 854 151 831 151C808 151 785 151 761.8 151C738.7 151 715.3 151 692.2 151C669 151 646 151 623 151C600 151 577 151 554 151C531 151 508 151 484.8 151C461.7 151 438.3 151 415.2 151C392 151 369 151 346 151C323 151 300 151 277 151C254 151 231 151 207.8 151C184.7 151 161.3 151 138.2 151C115 151 92 151 69 151C46 151 23 151 11.5 151L0 151Z" fill="#ffffff"></path></svg>